<svg xmlns="http://www.w3.org/2000/svg" width="16" height="16" fill="none" xmlns:v="https://vecta.io/nano"><g clip-path="url(#B)"><path fill="#fff" d="M0 0h16v16H0z"/><path fill="#0059b3" d="M0 0h16v16H0z"/><g filter="url(#A)"><path d="M7.374 13.182c-.7-.103-1.325-.373-1.876-.812-.541-.439-.929-1.069-1.162-1.89l1.61-.658c.093.373.266.709.518 1.008a1.98 1.98 0 0 0 .91.602v-2.66l-.126-.056a6.74 6.74 0 0 1-.98-.462c-.299-.177-.565-.383-.798-.616-.224-.233-.406-.495-.546-.784-.131-.299-.196-.63-.196-.994 0-.336.061-.653.182-.952a2.5 2.5 0 0 1 .518-.798 2.85 2.85 0 0 1 .84-.574 3.39 3.39 0 0 1 1.106-.308V2.024H8.62v1.232c.373.056.695.154.966.294.28.14.518.303.714.49.205.177.369.369.49.574a3.14 3.14 0 0 1 .28.602l-1.568.7c-.065-.187-.168-.364-.308-.532a1.48 1.48 0 0 0-.574-.406v2.506l1.092.518c.327.177.607.378.84.602s.411.481.532.77c.121.28.182.607.182.98 0 .42-.075.793-.224 1.12-.14.327-.331.607-.574.84s-.527.42-.854.56c-.317.14-.649.238-.994.294V14.4H7.374v-1.218zM6.45 5.86a.89.89 0 0 0 .21.588c.149.159.387.322.714.49V4.894c-.28.075-.504.196-.672.364a.82.82 0 0 0-.252.602zm3.024 4.508c0-.243-.065-.443-.196-.602s-.35-.317-.658-.476v2.142c.252-.084.457-.215.616-.392.159-.187.238-.411.238-.672z" fill="#fff"/></g></g><defs><filter id="A" x="2.336" y=".024" width="14.93" height="20.376" filterUnits="userSpaceOnUse" color-interpolation-filters="sRGB"><feFlood flood-opacity="0" result="A"/><feColorMatrix in="SourceAlpha" values="0 0 0 0 0 0 0 0 0 0 0 0 0 0 0 0 0 0 127 0" result="B"/><feOffset dx="2" dy="2"/><feGaussianBlur stdDeviation="2"/><feComposite in2="B" operator="out"/><feColorMatrix values="0 0 0 0 0 0 0 0 0 0 0 0 0 0 0 0 0 0 0.15 0"/><feBlend in2="A"/><feBlend in="SourceGraphic"/></filter><clipPath id="B"><path fill="#fff" d="M0 0h16v16H0z"/></clipPath></defs></svg>